<?xml version="1.0" encoding="utf-8"?>
<!-- Generator: Adobe Illustrator 19.2.1, SVG Export Plug-In . SVG Version: 6.00 Build 0)  -->
<svg version="1.1" id="Layer_1" xmlns="http://www.w3.org/2000/svg" xmlns:xlink="http://www.w3.org/1999/xlink" x="0px" y="0px"
	 viewBox="0 0 512 512" style="enable-background:new 0 0 512 512;" xml:space="preserve">
<style type="text/css">
	.st0{fill:#7C7B7B;stroke:#7C7B7B;stroke-miterlimit:10;}
</style>
<path class="st0" d="M459.7,233.4l-90.5,90.5c-50,50-131,50-181,0c-7.9-7.8-14-16.7-19.4-25.8l42.1-42.1c2-2,4.5-3.2,6.8-4.5
	c2.9,9.9,8,19.3,15.8,27.2c25,25,65.6,24.9,90.5,0l90.5-90.5c25-25,25-65.6,0-90.5c-24.9-25-65.5-25-90.5,0l-32.2,32.2
	c-26.1-10.2-54.2-12.9-81.6-8.9l68.6-68.6c50-50,131-50,181,0C509.6,102.3,509.6,183.4,459.7,233.4z M220.3,382.2l-32.2,32.2
	c-25,24.9-65.6,24.9-90.5,0c-25-25-25-65.6,0-90.5l90.5-90.5c25-25,65.5-25,90.5,0c7.8,7.8,12.9,17.2,15.8,27.1
	c2.4-1.4,4.8-2.5,6.8-4.5l42.1-42c-5.4-9.2-11.6-18-19.4-25.8c-50-50-131-50-181,0l-90.5,90.5c-50,50-50,131,0,181s131,50,181,0
	l68.6-68.6C274.6,395.1,246.4,392.3,220.3,382.2z"/>
</svg>
