<?xml version="1.0" encoding="utf-8"?>
<!-- Generator: Adobe Illustrator 21.0.2, SVG Export Plug-In . SVG Version: 6.00 Build 0)  -->
<svg version="1.1" id="Layer_1" xmlns="http://www.w3.org/2000/svg" xmlns:xlink="http://www.w3.org/1999/xlink" x="0px" y="0px"
	 viewBox="0 0 100 100" style="enable-background:new 0 0 100 100;" xml:space="preserve">
<style type="text/css">
	.st0{fill:#55499E;}
	.st1{fill-rule:evenodd;clip-rule:evenodd;fill:#55499E;}
</style>
<g>
	<path class="st0" d="M57.6,48.7c-2.3,0-4.5,0-6.8,0c0-0.1,0-0.2,0.1-0.3c0.7-1.9,1.4-3.9,2.1-5.8c0.1-0.3,0.2-0.3,0.5-0.3
		c2.1,0,4.1,0,6.2,0c0.3,0,0.4-0.1,0.5-0.4c1.1-3.1,2.1-6.1,3.2-9.2c0.1-0.2,0.2-0.4,0.4-0.4c2.1,0,4.2,0,6.3,0c0.1,0,0.2,0,0.3,0
		c-1.2,3.3-2.3,6.6-3.5,9.9c0.2,0,0.3,0,0.5,0c2.1,0,4.1,0,6.2,0c0.3,0,0.4-0.1,0.5-0.4c1.1-3.1,2.2-6.2,3.3-9.2
		c0-0.1,0.2-0.3,0.4-0.3c2.1,0,4.3,0,6.4,0c0.1,0,0.1,0,0.3,0c-1.2,3.3-2.3,6.6-3.5,9.9c2.3,0,4.6,0,6.9,0c-0.1,0.3-0.2,0.6-0.3,0.8
		c-0.6,1.6-1.2,3.3-1.9,4.9c0,0.1-0.1,0.2-0.1,0.3c-0.1,0.3-0.3,0.4-0.6,0.4c-2,0-3.9,0-5.9,0c-0.3,0-0.5,0.1-0.6,0.4
		c-0.7,2-1.4,4-2,5.9c0,0.1-0.1,0.2-0.1,0.4c2.3,0,4.6,0,6.9,0c-0.2,0.6-0.4,1.2-0.6,1.7c-0.5,1.4-1.1,2.8-1.6,4.3
		c-0.1,0.3-0.2,0.4-0.6,0.4c-2,0-4,0-6,0c-0.4,0-0.6,0.2-0.7,0.5c-1.1,3-2.2,6.1-3.3,9.1c-0.1,0.2-0.2,0.3-0.4,0.3
		c-2.1,0-4.3,0-6.4,0c-0.1,0-0.1,0-0.2,0c1.2-3.3,2.3-6.5,3.5-9.8c-0.2,0-0.3,0-0.4,0c-2.1,0-4.2,0-6.2,0c-0.3,0-0.4,0.1-0.5,0.4
		c-0.9,2.6-1.8,5.1-2.7,7.7c-0.2,0.5-0.4,1.1-0.6,1.6c0,0.1-0.2,0.3-0.3,0.3c-2.2,0-4.3,0-6.5,0c0,0-0.1,0-0.2-0.1
		c1.2-3.3,2.3-6.5,3.5-9.8c-2.3,0-4.6,0-7,0c0.1-0.4,0.3-0.8,0.4-1.1c0.6-1.6,1.2-3.3,1.8-4.9c0.1-0.3,0.3-0.4,0.6-0.4c2,0,4,0,6,0
		c0.3,0,0.4-0.1,0.5-0.4c0.7-2,1.3-4,2-6C57.6,49,57.6,48.9,57.6,48.7z M71.9,48.8c-0.1,0-0.2,0-0.3,0c-2.2,0-4.5,0-6.7,0
		c-0.2,0-0.3,0.1-0.4,0.3c-0.5,1.5-1,2.9-1.6,4.4c-0.2,0.6-0.4,1.3-0.7,1.9c0.1,0,0.2,0,0.3,0c2.2,0,4.5,0,6.7,0
		c0.2,0,0.3-0.1,0.4-0.3c0.3-1,0.7-1.9,1.1-2.9C71,51.1,71.4,50,71.9,48.8z"/>
	<path class="st0" d="M46,68.9c-6.5,5-19.1,6-27.5-2.8c-7.7-8-7.7-21.6,0.7-29.7c8.4-8.2,20.2-6.9,26.4-2.4
		c-1.4,2.2-2.9,4.4-4.3,6.6c-0.6-0.3-1.1-0.6-1.6-0.9c-2.6-1.2-5.3-1.6-8.1-1C27.1,39.4,23.9,42,22,46c-1.4,2.8-1.5,5.7-0.9,8.7
		c0.7,3,2.3,5.4,4.7,7.3c3.4,2.8,7.3,3.5,11.6,2.4c1.4-0.3,2.7-0.9,3.9-1.7c0.2-0.2,0.4-0.2,0.6,0.1c1.4,2,2.8,4,4.2,6
		C46,68.8,46,68.9,46,68.9z"/>
</g>
</svg>
